<svg width="366" height="360" viewBox="0 0 366 360" fill="none" xmlns="http://www.w3.org/2000/svg">
<circle cx="183.5" cy="179.5" r="164.5" fill="black"/>
<path d="M240.598 125.434L275.564 129.196C297.153 131.529 306.716 157.678 291.74 173.468L267.488 199.015C261.537 205.286 259.05 214.077 260.825 222.555L268.05 257.082C272.513 278.403 250.674 295.61 231.085 286.203L199.369 270.966C191.594 267.228 182.48 267.567 174.992 271.881L144.502 289.452C125.663 300.3 102.611 284.774 105.473 263.177L110.124 228.212C111.261 219.633 108.124 211.042 101.723 205.235L75.6456 181.57C59.5442 166.946 67.1323 140.145 88.4968 136.22L123.087 129.848C131.576 128.281 138.739 122.637 142.277 114.736L156.653 82.5419C165.529 62.651 193.281 61.6226 203.62 80.786L220.346 111.814C224.447 119.414 232.022 124.518 240.598 125.434Z" fill="#F4C1DD"/>
</svg>
