<?xml version="1.0" encoding="utf-8"?>
<!-- Generator: Adobe Illustrator 26.0.1, SVG Export Plug-In . SVG Version: 6.00 Build 0)  -->
<svg version="1.1" id="Layer_1" xmlns="http://www.w3.org/2000/svg" xmlns:xlink="http://www.w3.org/1999/xlink" x="0px" y="0px"
	 viewBox="0 0 716 427" style="enable-background:new 0 0 716 427;" xml:space="preserve">
<style type="text/css">
	.st0{fill:#FFFFFF;}
	.st1{fill:#F4C1DD;}
</style>
<g>
	<g id="GANETd.tif_00000023260936631424909520000005181832526383327877_">
		<g>
			<path class="st0" d="M317.08,154.76c20.49,0.38,36.79,5.94,50.16,18.78c10.07,9.68,15.95,21.57,17.8,35.42
				c1.53,11.42,0.58,22.61-3.76,33.34c-6.37,15.74-17.59,26.92-33.19,33.35c-21.97,9.05-43.77,8.19-64.53-3.54
				c-18.06-10.21-28.34-26.06-30.49-46.77c-1.88-18.06,2.61-34.4,14.7-48.25c9.74-11.16,22.2-17.78,36.61-20.68
				C309.25,155.41,314.27,155.11,317.08,154.76z M352.01,218.02c-0.07-1.03-0.11-2.35-0.24-3.65c-0.8-7.77-3.54-14.72-9.11-20.32
				c-7.47-7.51-16.72-10.1-27.03-9.19c-7.76,0.68-14.55,3.73-20.02,9.38c-6.33,6.54-9.12,14.57-9.22,23.52
				c-0.12,10.44,3.14,19.59,11.27,26.55c5.82,4.99,12.71,7.3,20.34,7.53c9.31,0.28,17.6-2.34,24.36-8.93
				C349.23,236.18,351.84,227.7,352.01,218.02z"/>
			<path class="st0" d="M122.99,218.07c0-15.17,0.1-30.33-0.04-45.5c-0.08-9.13,6.52-14.61,12.6-15.75
				c1.18-0.22,2.41-0.34,3.61-0.34c13.6,0.03,27.2-0.07,40.79,0.19c10.5,0.2,20.65,2.32,29.92,7.49
				c14.34,7.99,23.64,19.91,27.23,36.02c3.12,14,2.88,27.95-1.68,41.63c-5.64,16.94-17.5,27.78-34.14,33.62
				c-8.85,3.11-18.06,4.16-27.38,4.26c-11.59,0.12-23.19,0.09-34.79,0.04c-8.05-0.04-14.37-5.08-15.86-12.54
				c-0.26-1.33-0.26-2.72-0.26-4.09C122.98,248.08,122.99,233.08,122.99,218.07z M154.78,252.96c5.28,0,10.39,0.16,15.49-0.05
				c3.98-0.17,8.01-0.49,11.91-1.29c11.51-2.37,19.49-8.88,22.8-20.44c1.75-6.1,1.93-12.35,1.38-18.63
				c-0.47-5.42-1.77-10.61-4.71-15.24c-5.5-8.68-13.95-12.52-23.72-13.43c-7.38-0.68-14.83-0.49-22.26-0.67
				c-0.29-0.01-0.59,0.12-0.89,0.19C154.78,206.56,154.78,229.66,154.78,252.96z"/>
		</g>
	</g>
	<path class="st1" d="M546.33,170l27.97,3c17.27,1.86,24.92,22.71,12.94,35.3l-19.4,20.37c-4.76,5-6.75,12.01-5.33,18.77l5.78,27.53
		c3.57,17-13.9,30.72-29.57,23.22l-25.37-12.15c-6.22-2.98-13.51-2.71-19.5,0.73l-24.39,14.01c-15.07,8.65-33.51-3.73-31.22-20.95
		l3.72-27.88c0.91-6.84-1.6-13.69-6.72-18.32l-20.86-18.87c-12.88-11.66-6.81-33.03,10.28-36.16l27.67-5.08
		c6.79-1.25,12.52-5.75,15.35-12.05l11.5-25.67c7.1-15.86,29.3-16.68,37.57-1.4l13.38,24.74C533.41,165.2,539.47,169.27,546.33,170z
		"/>
</g>
</svg>
