<?xml version="1.0" encoding="utf-8"?>
<!-- Generator: Adobe Illustrator 26.0.1, SVG Export Plug-In . SVG Version: 6.00 Build 0)  -->
<svg version="1.1" id="Layer_1" xmlns="http://www.w3.org/2000/svg" xmlns:xlink="http://www.w3.org/1999/xlink" x="0px" y="0px"
	 viewBox="0 0 366 360" style="enable-background:new 0 0 366 360;" xml:space="preserve">
<style type="text/css">
	.st0{fill:#FFFFFF;}
	.st1{fill:#F4C1DD;}
</style>
<path class="st1" d="M229.07,136.5l27.97,3c17.27,1.86,24.92,22.71,12.94,35.3l-19.4,20.37c-4.76,5-6.75,12.01-5.33,18.77
	l5.78,27.53c3.57,17-13.9,30.72-29.57,23.22l-25.37-12.15c-6.22-2.98-13.51-2.71-19.5,0.73l-24.39,14.01
	c-15.07,8.65-33.51-3.73-31.22-20.95l3.72-27.88c0.91-6.84-1.6-13.69-6.72-18.32l-20.86-18.87c-12.88-11.66-6.81-33.03,10.28-36.16
	l27.67-5.08c6.79-1.25,12.52-5.75,15.35-12.05l11.5-25.67c7.1-15.86,29.3-16.68,37.57-1.4l13.38,24.74
	C216.15,131.7,222.21,135.77,229.07,136.5z"/>
</svg>
